<?xml version="1.0" encoding="utf-8"?>
<!-- Generator: Adobe Illustrator 19.0.0, SVG Export Plug-In . SVG Version: 6.00 Build 0)  -->
<svg version="1.1" id="Calque_1" xmlns="http://www.w3.org/2000/svg" xmlns:xlink="http://www.w3.org/1999/xlink" x="0px" y="0px"
	 viewBox="0 0 283.5 283.5" style="enable-background:new 0 0 283.5 283.5;" xml:space="preserve">
<path d="M27.2,181.9c0.9-4.4,1.7-8.7,3.9-12.6c3.3-5.9,7.6-9.9,13.5-11.2c1.5-0.3,2-1,2-2.9c0.1-18.2,3.9-35.3,11.1-51.3
	c6.7-14.8,15.6-27.3,27-37.4c8.9-8,18.6-14.1,29.3-17.9c12.7-4.6,25.6-6.1,38.9-4.1c6.6,1,13.1,2.6,19.4,5.2
	c6.8,2.7,13.2,6.4,19.3,10.8c6,4.4,11.5,9.5,16.6,15.4c6.2,7.2,11.5,15.3,15.9,24.3c8.3,16.9,12.7,35.2,12.9,54.8
	c0,2,0.6,2.7,2.2,3.1c8.3,2.1,13.3,8.6,16,17.9c0.6,1.9,0.9,3.9,1.3,5.9c0,10.9,0,21.9,0,32.8c-1.1,3.9-1.8,8.1-3.4,11.6
	c-3.5,8-9.3,12.9-16.9,13.2c-10.7,0.4-21.5,0.2-32.2,0.1c-4.9-0.1-8.2-4.2-8.2-10.1c0-20.8-0.1-41.5,0-62.3c0-5.9,3.3-9.8,8.3-9.9
	c3.5-0.1,7,0,10.8,0c-0.6-28.1-9.5-51.4-28-68.3c-24.8-22.6-51.8-25.3-79.5-8.2c-25.6,15.8-38.6,47.4-38.3,76.4c0.5,0,1,0.1,1.6,0.1
	c3.1,0,6.2-0.1,9.3,0c4.8,0.1,7.9,4,8.1,9.7c0,0.5,0,1,0,1.5c0,19.9,0,39.8,0,59.7c0,7.6-3.2,11.4-9.5,11.4
	c-9.5,0-18.9-0.2-28.4,0.1c-11.9,0.3-20.7-10.2-22.5-23.4c-0.1-0.6-0.2-1.1-0.3-1.7C27.2,203.8,27.2,192.8,27.2,181.9z"/>
</svg>
