<?xml version="1.0" encoding="utf-8"?>
<!-- Generator: Adobe Illustrator 19.0.0, SVG Export Plug-In . SVG Version: 6.00 Build 0)  -->
<svg version="1.1" id="Calque_1" xmlns="http://www.w3.org/2000/svg" xmlns:xlink="http://www.w3.org/1999/xlink" x="0px" y="0px"
	 viewBox="-91 79.5 100 125" style="enable-background:new -91 79.5 100 125;" xml:space="preserve">
<ellipse cx="-41" cy="123" rx="18" ry="18.4"/>
<path d="M-41,84.5c-24.9,0-45,20.1-45,45s20.1,45,45,45s45-20.1,45-45S-16.1,84.5-41,84.5z M-13.4,157c-5.9-5.7-16.1-9.5-27.6-9.5
	s-21.7,3.8-27.6,9.5c-7-7.1-11.4-16.8-11.4-27.5c0-21.5,17.5-39,39-39s39,17.5,39,39C-2,140.2-6.4,149.9-13.4,157z"/>
</svg>
