<?xml version="1.0" encoding="utf-8"?>
<!-- Generator: Adobe Illustrator 19.0.0, SVG Export Plug-In . SVG Version: 6.00 Build 0)  -->
<svg version="1.1" id="Calque_1" xmlns="http://www.w3.org/2000/svg" xmlns:xlink="http://www.w3.org/1999/xlink" x="0px" y="0px"
	 viewBox="-91 79.5 100 125" style="enable-background:new -91 79.5 100 125;" xml:space="preserve">
<circle cx="-47.9" cy="126.3" r="2.8"/>
<circle cx="-55.8" cy="126.3" r="2.8"/>
<circle cx="-63.6" cy="126.3" r="2.8"/>
<path d="M0.3,174.8c-1.3-0.4-4-1.3-6.7-2.6c0.5-0.4,1-0.8,1.4-1.2c5.7-5.1,8.9-11.9,8.9-19.2c0-7.4-3.2-14.3-9.1-19.5
	c-5.7-5-13.2-7.8-21.1-7.8c0,0-0.1,0-0.1,0c0.1-1.1,0.2-2.1,0.2-3.2c0-7.3-3.2-14.1-8.9-19.2c-5.6-4.9-12.9-7.6-20.8-7.6l0,0
	c-7.9,0-15.4,2.8-21.1,7.8c-5.9,5.2-9.1,12.1-9.1,19.5c0,7.3,3.2,14.1,8.9,19.2c0.5,0.4,0.9,0.8,1.4,1.2c-2.7,1.3-5.3,2.2-6.7,2.6
	c-2.4,0.7-3.9,3.1-3.4,5.6c0.4,2.4,2.5,4.1,4.8,4.1c0.1,0,0.2,0,0.3,0c0.5,0,12.5-0.8,24.7-3.8c0,0.2,0,0.5,0,0.7
	c0,7.4,3.2,14.2,9,19.4c0.3,0.3,1,0.9,2.3,1.8l0.2,0.1l0,0c3.3,2.3,8.9,5.5,17.4,7.7c12.5,3.2,25,4,25.5,4c0.1,0,0.2,0,0.3,0
	c2.4,0,4.4-1.7,4.8-4.1C4.2,177.9,2.7,175.5,0.3,174.8z M-56.3,145.6c-12.2,3.1-24.6,3.9-24.6,3.9s9.8-2.9,14.6-7.7
	c-2.7-1.1-5.3-2.5-7.5-4.5c-9.7-8.6-9.6-22.6,0.2-31.2c4.9-4.4,11.4-6.6,17.9-6.6c6.4,0,12.7,2.1,17.5,6.4
	c5.9,5.2,8.1,12.3,6.9,19.1c-5.9,0.9-11.3,3.4-15.6,7.2c-4.1,3.6-6.9,8.2-8.1,13.2C-55.5,145.4-55.9,145.5-56.3,145.6z M-25.7,175.6
	c-8-2-13.2-5.1-15.8-6.9c-0.1,0-0.1-0.1-0.2-0.1c-1.2-0.9-1.8-1.5-1.8-1.5c-9.8-8.7-9.9-22.7-0.2-31.2c4.8-4.3,11.2-6.4,17.5-6.4
	c6.4,0,12.9,2.2,17.9,6.6c9.8,8.7,9.9,22.7,0.2,31.2c-2.2,2-4.8,3.5-7.5,4.5c4.7,4.8,14.6,7.7,14.6,7.7S-13.6,178.7-25.7,175.6z"/>
<circle cx="-34.1" cy="156.2" r="2.8"/>
<circle cx="-26.2" cy="156.2" r="2.8"/>
<circle cx="-18.4" cy="156.2" r="2.8"/>
</svg>
