<?xml version="1.0" encoding="utf-8"?>
<!-- Generator: Adobe Illustrator 19.0.0, SVG Export Plug-In . SVG Version: 6.00 Build 0)  -->
<svg version="1.1" id="Calque_1" xmlns="http://www.w3.org/2000/svg" xmlns:xlink="http://www.w3.org/1999/xlink" x="0px" y="0px"
	 viewBox="0 0 283.5 283.5" style="enable-background:new 0 0 283.5 283.5;" xml:space="preserve">
<style type="text/css">
	.st0{fill:#FFFFFF;}
</style>
<g>
	<g>
		<path class="st0" d="M30,255.5c0-75,0-150,0-225c75,0,150,0,225,0c0,75,0,150,0,225C180,255.5,105,255.5,30,255.5z M155.9,145.1
			C155.9,145.1,155.9,145.1,155.9,145.1c0-23.5-0.1-47,0-70.4c0-3.9-0.5-7.4-4.4-9.2c-4-1.8-7.2-0.1-10.4,2.6
			c-14.6,12.7-29.3,25.4-44.1,37.9c-1.7,1.4-4.3,2.5-6.5,2.5c-13.3,0.2-26.6,0.1-40,0.1c-6.9,0-9.8,2.7-9.8,9.5c-0.1,18-0.1,36,0,54
			c0,6.4,2.3,8.6,8.7,8.7c12.3,0.1,24.7,0.3,37-0.1c4.9-0.1,8.5,1.6,12,4.7c14.2,12.5,28.6,24.7,42.7,37.3c3.4,3,7,4.4,10.8,2.4
			c3.4-1.8,4.1-5.6,4-9.5C155.8,192,155.9,168.5,155.9,145.1z M247.5,144c0.6-13.6-1.9-28.7-7.9-42.8c-4.9-11.3-11.8-21.9-18.3-32.4
			c-3.4-5.4-10.3-4.5-13.4,1c-2.1,3.8,0.6,6.5,2.5,9c8.3,11,14.2,23.1,18.2,36.4c5.5,18.3,5.8,36.6,1.7,55
			c-3.4,15.3-9.9,29.2-19.5,41.8c-1.6,2.1-2.9,5.5-2.4,8c0.4,2.1,3.2,4.6,5.5,5.4c3.7,1.3,6.3-1.2,8.5-4.2
			C238.9,198.7,247.7,173.8,247.5,144z M221,145.3c-1.3-8-2.1-16.1-3.9-24c-2.7-12-8-22.9-15.3-32.8c-3.8-5-9.4-5.5-12.4-0.9
			c-2.3,3.6-1.4,7.2,1.1,10.6c9.8,13.5,14.6,28.9,15.1,45.4c0.5,18.2-4.8,34.8-15.3,49.8c-2.9,4.1-2.6,8.8,0.7,11.1
			c3.7,2.6,8,1.9,11.1-2.4C214.3,185.2,220.1,166.2,221,145.3z M190.8,141.7c-0.1-8.9-3-21.1-10.3-32c-2.9-4.3-6.2-5.2-9.5-3.2
			c-4.1,2.6-5.1,6.2-3,10.7c0.4,0.9,1.1,1.7,1.5,2.5c7.8,15.3,9.3,30.8,2.1,46.7c-1.3,3-3,5.9-4,9c-1.1,3.7-0.2,7.1,3.8,8.6
			c3.7,1.4,7,0.7,9.3-3C187.6,170.4,190.7,158.5,190.8,141.7z"/>
		<path d="M155.9,145.1c0,23.5-0.1,47,0.1,70.4c0,4-0.7,7.7-4,9.5c-3.8,2-7.4,0.5-10.8-2.4c-14.1-12.5-28.5-24.8-42.7-37.3
			c-3.5-3.1-7-4.9-12-4.7c-12.3,0.4-24.6,0.2-37,0.1c-6.4,0-8.7-2.3-8.7-8.7c-0.1-18-0.1-36,0-54c0-6.8,2.9-9.5,9.8-9.5
			c13.3,0,26.6,0.1,40-0.1c2.2,0,4.8-1.1,6.5-2.5c14.8-12.5,29.5-25.2,44.1-37.9c3.1-2.7,6.4-4.4,10.4-2.6c3.9,1.8,4.4,5.3,4.4,9.2
			C155.8,98.1,155.9,121.6,155.9,145.1C155.9,145.1,155.9,145.1,155.9,145.1z"/>
		<path d="M247.5,144c0.3,29.9-8.6,54.8-25.1,77.1c-2.2,3-4.8,5.6-8.5,4.2c-2.3-0.8-5.1-3.3-5.5-5.4c-0.5-2.4,0.8-5.8,2.4-8
			c9.5-12.5,16.1-26.5,19.5-41.8c4.1-18.4,3.8-36.7-1.7-55c-4-13.3-9.9-25.3-18.2-36.4c-1.8-2.4-4.6-5.1-2.5-9
			c3.1-5.5,10-6.4,13.4-1c6.6,10.5,13.4,21.1,18.3,32.4C245.6,115.2,248,130.4,247.5,144z"/>
		<path d="M221,145.3c-0.9,20.9-6.6,39.8-18.9,56.7c-3.1,4.3-7.4,5-11.1,2.4c-3.3-2.3-3.6-6.9-0.7-11.1c10.4-15,15.8-31.6,15.3-49.8
			c-0.5-16.5-5.3-31.9-15.1-45.4c-2.5-3.4-3.4-7-1.1-10.6c3-4.6,8.6-4.1,12.4,0.9c7.3,9.9,12.6,20.9,15.3,32.8
			C218.9,129.2,219.7,137.3,221,145.3z"/>
		<path d="M190.8,141.7c-0.1,16.8-3.2,28.6-10.1,39.4c-2.3,3.6-5.6,4.4-9.3,3c-3.9-1.5-4.9-4.9-3.8-8.6c1-3.1,2.6-6,4-9
			c7.1-15.9,5.7-31.5-2.1-46.7c-0.5-0.9-1.1-1.6-1.5-2.5c-2.1-4.5-1.1-8.1,3-10.7c3.3-2.1,6.7-1.1,9.5,3.2
			C187.8,120.6,190.7,132.9,190.8,141.7z"/>
	</g>
</g>
</svg>
