<?xml version="1.0" encoding="utf-8"?>
<!-- Generator: Adobe Illustrator 19.0.0, SVG Export Plug-In . SVG Version: 6.00 Build 0)  -->
<svg version="1.1" id="Calque_1" xmlns="http://www.w3.org/2000/svg" xmlns:xlink="http://www.w3.org/1999/xlink" x="0px" y="0px"
	 viewBox="0 0 283.5 283.5" style="enable-background:new 0 0 283.5 283.5;" xml:space="preserve">
<style type="text/css">
	.st0{stroke:#FFFFFF;stroke-miterlimit:10;}
</style>
<path class="st0" d="M23.9,221.6c0-5.1-0.1-10.2,0-15.3c0.2-9.4,3.5-17.7,10.3-24.3c6.1-6,13.6-9.5,22.1-11
	c4.2-0.8,8.4-0.9,12.7-0.9c13.9,0,27.8-0.1,41.7,0.1c10.3,0.2,19.8,3.3,27.8,10c6.5,5.4,10.5,12.4,11.7,20.8c0.6,4,0.4,8.2,0.5,12.3
	c0.1,2.8,0,5.6,0,8.4C108.4,221.6,66.2,221.6,23.9,221.6z"/>
<path class="st0" d="M124.2,122.3c0.5,19.3-15.3,37.3-37.1,37.1c-20.5-0.1-36.7-16.2-36.7-37.1c0-20.5,16.2-36.9,36.9-36.9
	C108.9,85.5,124.5,102.8,124.2,122.3z"/>
<path class="st0" d="M102.2,228.7c0-6.2-0.1-12.3,0-18.5c0.3-11.4,4.2-21.4,12.4-29.4c7.4-7.3,16.5-11.5,26.7-13.4
	c5.1-0.9,10.2-1.1,15.4-1.1c16.8,0.1,33.7-0.2,50.5,0.1c12.5,0.2,23.9,4,33.6,12.1c7.8,6.5,12.7,15,14.2,25.2
	c0.7,4.9,0.5,9.9,0.6,14.8c0.1,3.4,0,6.8,0,10.2C204.5,228.7,153.3,228.7,102.2,228.7z"/>
<path class="st0" d="M223.6,108.5c0.5,23.4-18.5,45.1-44.9,45c-24.8-0.2-44.5-19.7-44.5-45c0-24.8,19.6-44.7,44.7-44.7
	C205,63.9,224,84.9,223.6,108.5z"/>
<path class="st0" d="M49.7,246.7c0-7.2-0.1-14.5,0-21.7c0.3-13.4,5-25.1,14.6-34.5C73,182,83.7,177,95.7,174.8c6-1.1,12-1.3,18-1.3
	c19.7,0.1,39.5-0.2,59.2,0.1c14.6,0.2,28.1,4.7,39.4,14.2c9.2,7.6,14.9,17.6,16.6,29.5c0.8,5.7,0.6,11.6,0.7,17.4c0.1,4,0,8,0,12
	C169.7,246.7,109.7,246.7,49.7,246.7z"/>
<path class="st0" d="M192.1,105.8c0.6,27.5-21.7,52.9-52.7,52.7c-29.1-0.2-52.1-23-52.1-52.7c0-29,23-52.5,52.4-52.4
	C170.3,53.5,192.5,78.1,192.1,105.8z"/>
</svg>
