<?xml version="1.0" encoding="utf-8"?>
<!-- Generator: Adobe Illustrator 19.0.0, SVG Export Plug-In . SVG Version: 6.00 Build 0)  -->
<svg version="1.1" id="Calque_1" xmlns="http://www.w3.org/2000/svg" xmlns:xlink="http://www.w3.org/1999/xlink" x="0px" y="0px"
	 viewBox="-91 79.5 100 125" style="enable-background:new -91 79.5 100 125;" xml:space="preserve">
<circle cx="-288" cy="116.2" r="2.8"/>
<circle cx="-295.8" cy="116.2" r="2.8"/>
<circle cx="-303.7" cy="116.2" r="2.8"/>
<path d="M-41.4,92c9.7,0,19.4,3.3,26.8,9.8c14.7,13,14.8,34,0.3,46.8c-3.3,3-7.2,5.2-11.3,6.8c7.1,7.2,21.9,11.6,21.9,11.6
	s-18.7-1.2-36.9-5.8c-12-3.1-19.8-7.6-23.7-10.4c-0.1-0.1-0.2-0.1-0.3-0.2c-1.8-1.3-2.8-2.2-2.8-2.2c-14.7-13-14.8-34-0.3-46.8
	C-60.4,95.1-50.9,92-41.4,92 M-41.4,84.6c-11.7,0-22.8,4.1-31.1,11.4c-8.6,7.6-13.3,17.8-13.3,28.7c0,11,4.8,21.4,13.5,29.1
	c0.4,0.4,1.5,1.4,3.4,2.7c0.1,0,0.2,0.1,0.3,0.2l0.1,0c4.9,3.5,13.4,8.3,26.1,11.5c18.7,4.8,37.5,6,38.3,6c0.2,0,0.3,0,0.5,0
	c3.6,0,6.6-2.5,7.3-6.1c0.7-3.7-1.6-7.3-5.2-8.4c-2-0.6-6-2-10-4c0.7-0.6,1.5-1.2,2.2-1.8c8.6-7.6,13.3-17.8,13.3-28.7
	C3.9,114.4-1,104-9.7,96.3C-18.3,88.7-29.5,84.6-41.4,84.6L-41.4,84.6z"/>
<circle cx="-53.2" cy="132.1" r="4.2"/>
<circle cx="-41.4" cy="132.1" r="4.2"/>
<circle cx="-29.7" cy="132.1" r="4.2"/>
<path d="M-239.7,164.7c-1.3-0.4-4-1.3-6.7-2.6c0.5-0.4,1-0.8,1.4-1.2c5.7-5.1,8.9-11.9,8.9-19.2c0-7.4-3.2-14.3-9.1-19.5
	c-5.7-5-13.2-7.8-21.1-7.8c0,0-0.1,0-0.1,0c0.1-1.1,0.2-2.1,0.2-3.2c0-7.3-3.2-14.1-8.9-19.2c-5.6-4.9-12.9-7.6-20.8-7.6l0,0
	c-7.9,0-15.4,2.8-21.1,7.8c-5.9,5.2-9.1,12.1-9.1,19.5c0,7.3,3.2,14.1,8.9,19.2c0.5,0.4,0.9,0.8,1.4,1.2c-2.7,1.3-5.3,2.2-6.7,2.6
	c-2.4,0.7-3.9,3.1-3.4,5.6c0.4,2.4,2.5,4.1,4.8,4.1c0.1,0,0.2,0,0.3,0c0.5,0,12.5-0.8,24.7-3.8c0,0.2,0,0.5,0,0.7
	c0,7.4,3.2,14.2,9,19.4c0.3,0.3,1,0.9,2.3,1.8l0.2,0.1l0,0c3.3,2.3,8.9,5.5,17.4,7.7c12.5,3.2,25,4,25.5,4c0.1,0,0.2,0,0.3,0
	c2.4,0,4.4-1.7,4.8-4.1C-235.9,167.9-237.3,165.5-239.7,164.7z M-296.3,135.6c-12.2,3.1-24.6,3.9-24.6,3.9s9.8-2.9,14.6-7.7
	c-2.7-1.1-5.3-2.5-7.5-4.5c-9.7-8.6-9.6-22.6,0.2-31.2c4.9-4.4,11.4-6.6,17.9-6.6c6.4,0,12.7,2.1,17.5,6.4
	c5.9,5.2,8.1,12.3,6.9,19.1c-5.9,0.9-11.3,3.4-15.6,7.2c-4.1,3.6-6.9,8.2-8.1,13.2C-295.5,135.4-295.9,135.5-296.3,135.6z
	 M-265.8,165.6c-8-2-13.2-5.1-15.8-6.9c-0.1,0-0.1-0.1-0.2-0.1c-1.2-0.9-1.8-1.5-1.8-1.5c-9.8-8.7-9.9-22.7-0.2-31.2
	c4.8-4.3,11.2-6.4,17.5-6.4c6.4,0,12.9,2.2,17.9,6.6c9.8,8.7,9.9,22.7,0.2,31.2c-2.2,2-4.8,3.5-7.5,4.5c4.7,4.8,14.6,7.7,14.6,7.7
	S-253.6,168.7-265.8,165.6z"/>
<circle cx="-274.1" cy="146.2" r="2.8"/>
<circle cx="-266.3" cy="146.2" r="2.8"/>
<circle cx="-258.4" cy="146.2" r="2.8"/>
</svg>
