<?xml version="1.0" encoding="utf-8"?>
<!-- Generator: Adobe Illustrator 19.0.0, SVG Export Plug-In . SVG Version: 6.00 Build 0)  -->
<svg version="1.1" id="Calque_1" xmlns="http://www.w3.org/2000/svg" xmlns:xlink="http://www.w3.org/1999/xlink" x="0px" y="0px"
	 viewBox="0 0 283.5 283.5" style="enable-background:new 0 0 283.5 283.5;" xml:space="preserve">
<style type="text/css">
	.st0{stroke:#FFFFFF;stroke-miterlimit:10;}
</style>
<path class="st0" d="M51.8,243.2c0-7.2-0.1-14.5,0-21.7c0.3-13.4,5-25.1,14.6-34.5c8.7-8.5,19.4-13.5,31.3-15.7c6-1.1,12-1.3,18-1.3
	c19.7,0.1,39.5-0.2,59.2,0.1c14.6,0.2,28.1,4.7,39.4,14.2c9.2,7.6,14.9,17.6,16.6,29.5c0.8,5.7,0.6,11.6,0.7,17.4c0.1,4,0,8,0,12
	C171.7,243.2,111.8,243.2,51.8,243.2z"/>
<path class="st0" d="M194.2,102.4c0.6,27.5-21.7,52.9-52.7,52.7c-29.1-0.2-52.1-23-52.1-52.7c0-29,23-52.5,52.4-52.4
	C172.4,50,194.6,74.6,194.2,102.4z"/>
</svg>
